<svg xmlns="http://www.w3.org/2000/svg" width="560" height="420" fill="none" viewBox="0 0 560 420"><rect width="560" height="420" fill="#0F172A" rx="32"/><rect width="480" height="70" x="40" y="40" fill="#111F3A" rx="18"/><rect width="160" height="12" x="60" y="60" fill="#38BDF8" rx="6"/><rect width="240" height="10" x="60" y="82" fill="#64748B" rx="5"/><rect width="230" height="220" x="40" y="140" fill="#111F3A" rx="20"/><rect width="120" height="14" x="60" y="170" fill="#2DD4BF" rx="7"/><rect width="160" height="10" x="60" y="200" fill="#64748B" rx="5"/><rect width="140" height="10" x="60" y="228" fill="#64748B" rx="5"/><rect width="110" height="10" x="60" y="256" fill="#64748B" rx="5"/><rect width="230" height="140" x="290" y="140" fill="#111F3A" rx="20"/><rect width="140" height="14" x="310" y="170" fill="#38BDF8" rx="7"/><rect width="160" height="10" x="310" y="200" fill="#64748B" rx="5"/><rect width="120" height="10" x="310" y="228" fill="#64748B" rx="5"/><rect width="230" height="60" x="290" y="300" fill="#111F3A" rx="18"/><rect width="120" height="12" x="310" y="320" fill="#2DD4BF" rx="6"/><rect width="150" height="8" x="310" y="340" fill="#64748B" rx="4"/></svg>