<svg width="560" height="420" viewBox="0 0 560 420" fill="none" xmlns="http://www.w3.org/2000/svg">
  <rect width="560" height="420" rx="32" fill="#0F172A"/>
  <rect x="40" y="40" width="480" height="70" rx="18" fill="#111F3A"/>
  <rect x="60" y="60" width="160" height="12" rx="6" fill="#38BDF8"/>
  <rect x="60" y="82" width="240" height="10" rx="5" fill="#64748B"/>

  <rect x="40" y="140" width="230" height="220" rx="20" fill="#111F3A"/>
  <rect x="60" y="170" width="120" height="14" rx="7" fill="#2DD4BF"/>
  <rect x="60" y="200" width="160" height="10" rx="5" fill="#64748B"/>
  <rect x="60" y="228" width="140" height="10" rx="5" fill="#64748B"/>
  <rect x="60" y="256" width="110" height="10" rx="5" fill="#64748B"/>

  <rect x="290" y="140" width="230" height="140" rx="20" fill="#111F3A"/>
  <rect x="310" y="170" width="140" height="14" rx="7" fill="#38BDF8"/>
  <rect x="310" y="200" width="160" height="10" rx="5" fill="#64748B"/>
  <rect x="310" y="228" width="120" height="10" rx="5" fill="#64748B"/>

  <rect x="290" y="300" width="230" height="60" rx="18" fill="#111F3A"/>
  <rect x="310" y="320" width="120" height="12" rx="6" fill="#2DD4BF"/>
  <rect x="310" y="340" width="150" height="8" rx="4" fill="#64748B"/>
</svg>
